<svg width="25" height="25" viewBox="0 0 24 25" fill="none" xmlns="http://www.w3.org/2000/svg">
<g id="bxs-basket 1">
<path id="Vector" d="M8.13201 3.27246L4.42001 9.76846H3.00001C2.68801 9.76846 2.39501 9.91446 2.20501 10.1615C2.01601 10.4095 1.95301 10.7315 2.03501 11.0315L4.83401 21.2945C5.07001 22.1625 5.86401 22.7685 6.76401 22.7685H17.237C18.135 22.7685 18.929 22.1635 19.167 21.2935L21.966 11.0305C22.048 10.7305 21.986 10.4085 21.796 10.1605C21.605 9.91446 21.312 9.76846 21 9.76846H19.58L15.868 3.27246L14.132 4.26446L17.277 9.76846H6.72301L9.86801 4.26446L8.13201 3.27246ZM14 13.7685H16V18.7685H14V13.7685ZM8.00001 13.7685H10V18.7685H8.00001V13.7685Z" fill="#1B1B1D"/>
</g>
</svg>
