<svg width="36" height="37" viewBox="0 0 36 37" fill="none" xmlns="http://www.w3.org/2000/svg">
<g id="Star-Fill 1">
<g id="&#208;&#161;&#208;&#187;&#208;&#190;&#208;&#185; 2">
<g id="Fill">
<g id="Star/Fill">
<path id="Vector" d="M26.385 21.89C26.2644 22.0136 26.1722 22.162 26.115 22.325C26.0772 22.4979 26.0772 22.677 26.115 22.85L27 28.745C27.0789 29.205 27.027 29.678 26.85 30.11C26.6703 30.5464 26.3682 30.9215 25.98 31.19C25.5952 31.4604 25.1441 31.6211 24.675 31.655C24.2077 31.6741 23.7446 31.5597 23.34 31.325L18.555 28.67C18.3948 28.5798 18.2138 28.5333 18.03 28.535C17.8415 28.5334 17.6556 28.5799 17.49 28.67L12.735 31.325C12.3206 31.547 11.8549 31.6557 11.385 31.64C11.0371 31.6172 10.6979 31.5221 10.3889 31.3607C10.0799 31.1993 9.80798 30.9752 9.59055 30.7027C9.37313 30.4302 9.21497 30.1154 9.12619 29.7783C9.03742 29.4411 9.01998 29.0892 9.075 28.745L10.035 22.85C10.0801 22.6779 10.0801 22.4971 10.035 22.325C9.98897 22.1604 9.90112 22.0105 9.78 21.89L5.565 17.645C5.25043 17.3129 5.02809 16.9044 4.92 16.46C4.80018 16.018 4.80018 15.552 4.92 15.11C5.08601 14.6743 5.3657 14.291 5.73 14C6.08186 13.7037 6.50652 13.5069 6.96 13.43L12.495 12.59C12.6736 12.5578 12.8428 12.4861 12.99 12.38C13.136 12.2686 13.2541 12.1248 13.335 11.96L15.735 6.79998C15.9339 6.37007 16.2513 6.00582 16.65 5.74998C17.0514 5.49517 17.517 5.35986 17.9925 5.35986C18.468 5.35986 18.9336 5.49517 19.335 5.74998C19.7337 6.00582 20.0511 6.37007 20.25 6.79998L22.665 11.96C22.7411 12.1278 22.8601 12.2727 23.01 12.38C23.1556 12.489 23.3255 12.561 23.505 12.59L29.04 13.43C29.4935 13.5069 29.9181 13.7037 30.27 14C30.6145 14.3026 30.8732 14.6906 31.02 15.125C31.1398 15.567 31.1398 16.033 31.02 16.475C30.9119 16.9194 30.6896 17.3279 30.375 17.66L26.385 21.89Z" fill="#1B1B1D"/>
</g>
</g>
</g>
</g>
</svg>
